<svg id="svg" version="1.1" xmlns="http://www.w3.org/2000/svg" xmlns:xlink="http://www.w3.org/1999/xlink" width="400" height="400" viewBox="0, 0, 400,400"><g id="svgg"><path id="path0" d="M245.488 35.522 C 244.890 35.809,244.400 36.214,244.400 36.422 C 244.400 36.630,244.156 36.800,243.858 36.800 C 243.341 36.800,241.200 38.542,241.200 38.963 C 241.200 39.074,240.750 39.828,240.200 40.638 C 239.650 41.449,239.200 42.432,239.200 42.822 C 239.200 43.213,239.013 43.596,238.785 43.672 C 238.556 43.748,238.260 45.113,238.127 46.705 C 237.993 48.297,237.730 49.600,237.542 49.600 C 237.092 49.600,237.097 54.289,237.547 54.568 C 237.739 54.686,238.019 56.046,238.172 57.591 C 238.324 59.136,238.603 60.400,238.792 60.400 C 238.982 60.400,239.258 60.952,239.406 61.627 C 239.554 62.302,239.928 62.951,240.238 63.070 C 240.547 63.188,240.800 63.505,240.800 63.774 C 240.800 64.176,243.230 66.577,245.990 68.903 C 246.366 69.219,248.327 69.450,251.390 69.537 C 254.035 69.612,256.371 69.837,256.580 70.037 C 256.789 70.237,257.964 70.400,259.190 70.400 C 262.120 70.400,268.126 71.161,268.391 71.566 C 268.506 71.741,269.320 72.017,270.199 72.179 C 271.079 72.341,271.889 72.592,271.999 72.737 C 272.110 72.882,273.097 73.450,274.193 74.000 C 277.663 75.741,280.435 79.023,281.119 82.200 C 281.356 83.300,281.683 84.740,281.847 85.400 C 282.011 86.060,282.247 107.137,282.372 132.239 C 282.535 164.849,282.727 178.038,283.045 178.439 C 283.290 178.747,283.609 179.810,283.753 180.800 C 283.897 181.790,284.269 183.140,284.579 183.800 C 284.889 184.460,285.516 185.810,285.974 186.800 C 287.034 189.098,287.673 190.119,288.300 190.520 C 288.575 190.696,288.800 191.101,288.800 191.421 C 288.800 191.740,290.465 193.689,292.500 195.750 C 295.996 199.291,296.567 200.391,294.917 200.402 C 294.608 200.404,291.842 203.257,290.164 205.304 C 288.670 207.127,286.512 210.576,286.225 211.600 C 286.071 212.150,285.701 213.140,285.402 213.800 C 283.949 217.013,283.600 217.996,283.600 218.880 C 283.600 219.408,283.375 220.065,283.100 220.340 C 282.709 220.731,282.550 230.678,282.371 266.120 C 282.244 291.024,282.012 311.940,281.854 312.600 C 281.696 313.260,281.370 314.835,281.129 316.100 C 280.888 317.365,280.555 318.400,280.389 318.400 C 280.223 318.400,279.980 318.805,279.848 319.300 C 279.283 321.436,273.738 325.600,271.460 325.600 C 271.097 325.600,270.800 325.766,270.800 325.968 C 270.800 326.171,269.585 326.465,268.100 326.621 C 266.615 326.778,265.290 327.077,265.156 327.287 C 265.021 327.496,261.016 327.769,256.256 327.894 C 251.495 328.019,247.600 328.274,247.600 328.461 C 247.600 328.647,247.333 328.800,247.008 328.800 C 246.095 328.800,242.000 331.555,242.000 332.169 C 242.000 332.469,241.730 332.818,241.400 332.945 C 241.070 333.071,240.800 333.451,240.800 333.787 C 240.800 334.124,240.642 334.400,240.449 334.400 C 240.255 334.400,239.860 334.985,239.571 335.700 C 239.282 336.415,238.901 337.100,238.724 337.223 C 238.547 337.345,238.286 338.830,238.143 340.523 C 238.000 342.215,237.729 343.600,237.541 343.600 C 237.094 343.600,237.097 347.889,237.544 348.166 C 237.734 348.283,237.985 349.576,238.102 351.040 C 238.220 352.503,238.487 353.813,238.696 353.950 C 238.906 354.088,239.198 354.695,239.346 355.300 C 239.494 355.905,239.802 356.400,240.031 356.400 C 240.260 356.400,240.349 356.560,240.228 356.755 C 240.107 356.950,240.277 357.332,240.604 357.604 C 240.932 357.876,241.200 358.265,241.200 358.468 C 241.200 358.997,243.222 360.800,243.816 360.800 C 244.090 360.800,244.418 361.070,244.545 361.400 C 244.671 361.730,245.036 362.000,245.354 362.000 C 245.673 362.000,246.009 362.225,246.102 362.500 C 246.323 363.154,266.386 363.136,267.723 362.481 C 268.205 362.244,269.995 361.934,271.700 361.791 C 273.405 361.649,274.800 361.399,274.800 361.238 C 274.800 361.076,276.179 360.729,277.865 360.467 C 279.550 360.205,281.125 359.829,281.365 359.631 C 281.604 359.433,282.475 359.145,283.300 358.991 C 284.125 358.837,284.800 358.551,284.800 358.355 C 284.800 358.160,285.115 357.994,285.500 357.986 C 285.885 357.979,286.920 357.625,287.800 357.200 C 288.680 356.775,289.625 356.421,289.900 356.414 C 290.175 356.406,290.400 356.240,290.400 356.043 C 290.400 355.847,290.883 355.566,291.473 355.417 C 292.800 355.084,295.415 353.557,296.962 352.211 C 297.601 351.655,298.366 351.200,298.662 351.200 C 298.958 351.200,299.200 351.014,299.200 350.787 C 299.200 350.561,299.515 350.258,299.900 350.114 C 301.922 349.362,310.000 341.619,310.000 340.433 C 310.000 340.232,310.135 340.007,310.300 339.933 C 310.984 339.629,312.544 336.824,315.607 330.387 C 315.767 330.050,316.032 329.150,316.195 328.387 C 316.359 327.624,316.636 326.820,316.811 326.600 C 317.930 325.196,318.125 318.681,318.377 274.400 C 318.519 249.430,318.780 228.550,318.957 228.000 C 320.415 223.467,322.952 220.013,325.600 218.954 C 326.480 218.601,327.200 218.173,327.200 218.002 C 327.200 217.831,328.055 217.564,329.100 217.408 C 330.145 217.252,331.196 216.964,331.435 216.767 C 331.674 216.571,334.284 216.289,337.235 216.142 C 342.217 215.894,343.728 215.547,344.800 214.405 C 344.910 214.288,345.664 213.844,346.476 213.418 C 347.287 212.993,347.876 212.523,347.785 212.376 C 347.694 212.228,347.975 211.785,348.410 211.391 C 349.670 210.251,351.218 207.181,351.474 205.315 C 351.603 204.372,351.864 203.600,352.054 203.600 C 352.244 203.600,352.400 201.440,352.400 198.800 C 352.400 196.160,352.243 194.000,352.052 194.000 C 351.860 194.000,351.584 193.100,351.438 192.000 C 351.292 190.900,351.016 190.000,350.825 190.000 C 350.634 190.000,350.290 189.460,350.060 188.800 C 349.830 188.140,349.442 187.600,349.197 187.600 C 348.953 187.600,348.856 187.432,348.983 187.227 C 349.110 187.022,348.852 186.601,348.409 186.291 C 347.967 185.982,347.731 185.602,347.885 185.448 C 348.039 185.294,347.780 185.068,347.310 184.945 C 346.840 184.822,346.359 184.469,346.240 184.161 C 346.122 183.852,345.749 183.600,345.413 183.600 C 345.076 183.600,344.800 183.440,344.800 183.243 C 344.800 182.222,341.473 181.600,336.012 181.600 C 325.107 181.600,322.305 180.057,318.942 172.200 C 318.754 171.760,318.491 150.610,318.358 125.200 C 318.122 80.341,317.917 73.193,316.826 71.811 C 316.647 71.585,316.377 70.545,316.226 69.500 C 316.075 68.455,315.782 67.600,315.575 67.600 C 315.369 67.600,315.200 67.222,315.200 66.760 C 315.200 65.585,311.450 58.064,310.433 57.200 C 310.304 57.090,309.688 56.249,309.065 55.330 C 307.698 53.314,303.012 48.895,300.000 46.782 C 299.230 46.242,298.510 45.710,298.400 45.599 C 298.290 45.489,297.660 45.129,297.000 44.800 C 296.340 44.471,295.656 43.976,295.480 43.701 C 295.304 43.425,294.899 43.200,294.580 43.200 C 294.261 43.200,294.000 43.034,294.000 42.832 C 294.000 42.629,293.460 42.345,292.800 42.200 C 292.140 42.055,291.600 41.785,291.600 41.600 C 291.600 41.415,291.015 41.138,290.300 40.986 C 289.585 40.833,288.794 40.542,288.542 40.340 C 288.290 40.137,287.930 40.010,287.742 40.056 C 287.424 40.134,285.864 39.550,284.359 38.790 C 284.006 38.612,282.879 38.341,281.854 38.187 C 280.829 38.033,279.900 37.761,279.789 37.582 C 279.678 37.403,278.555 37.141,277.294 37.001 C 276.032 36.861,274.640 36.580,274.200 36.376 C 271.878 35.298,247.468 34.572,245.488 35.522 " stroke="none" fill="#3c4bcc" fill-rule="evenodd"></path><path id="path1" d="M142.609 34.675 C 139.095 34.756,136.044 34.996,135.829 35.211 C 135.615 35.425,134.441 35.613,133.220 35.629 C 131.999 35.645,130.100 35.820,129.000 36.018 C 127.900 36.215,125.709 36.607,124.131 36.888 C 122.554 37.170,121.129 37.535,120.965 37.700 C 120.801 37.865,120.202 38.001,119.633 38.002 C 119.065 38.004,118.113 38.259,117.517 38.570 C 116.921 38.881,115.436 39.358,114.217 39.631 C 112.998 39.904,112.000 40.264,112.000 40.432 C 112.000 40.599,111.460 40.855,110.800 41.000 C 110.140 41.145,109.600 41.429,109.600 41.632 C 109.600 41.834,109.321 42.000,108.979 42.000 C 108.179 42.000,105.097 43.649,104.680 44.300 C 104.504 44.575,104.094 44.800,103.768 44.800 C 103.442 44.800,103.078 45.054,102.959 45.364 C 102.839 45.674,102.305 46.037,101.771 46.172 C 101.237 46.306,100.800 46.592,100.800 46.808 C 100.800 47.023,100.573 47.200,100.296 47.200 C 100.018 47.200,99.345 47.740,98.800 48.400 C 98.255 49.060,97.627 49.601,97.404 49.602 C 96.900 49.605,94.972 51.523,92.581 54.400 C 90.558 56.834,90.405 57.077,88.400 61.036 C 87.630 62.556,86.873 63.895,86.719 64.012 C 86.564 64.129,86.316 64.984,86.168 65.912 C 86.019 66.840,85.747 67.600,85.563 67.600 C 85.378 67.600,85.108 68.500,84.962 69.600 C 84.816 70.700,84.555 71.600,84.383 71.600 C 84.210 71.600,83.955 72.995,83.816 74.700 C 83.677 76.405,83.391 78.113,83.182 78.495 C 82.946 78.923,82.797 96.155,82.792 123.495 C 82.784 168.591,82.694 171.514,81.221 174.558 C 80.436 176.178,77.244 179.600,76.518 179.600 C 76.336 179.600,75.471 179.993,74.594 180.473 C 73.194 181.239,72.125 181.380,65.800 181.628 C 58.110 181.930,57.247 182.075,55.435 183.368 C 54.093 184.327,51.600 186.720,51.600 187.050 C 51.600 187.173,51.245 187.725,50.811 188.277 C 50.376 188.830,49.900 189.938,49.753 190.741 C 49.605 191.543,49.286 192.328,49.042 192.485 C 48.459 192.862,48.446 205.123,49.028 205.520 C 49.254 205.674,49.656 206.544,49.921 207.453 C 50.187 208.361,50.673 209.328,51.002 209.602 C 51.331 209.875,51.600 210.271,51.600 210.482 C 51.600 211.350,56.300 215.200,57.360 215.200 C 57.686 215.200,58.047 215.352,58.161 215.537 C 58.276 215.723,60.851 215.993,63.885 216.139 C 66.945 216.286,69.459 216.581,69.533 216.802 C 69.607 217.021,70.124 217.200,70.683 217.200 C 74.447 217.200,81.200 222.890,81.200 226.061 C 81.200 226.431,81.379 226.793,81.599 226.867 C 82.591 227.199,82.776 234.918,82.788 276.476 C 82.794 300.388,82.953 320.048,83.141 320.163 C 83.328 320.279,83.589 321.655,83.721 323.222 C 83.852 324.788,84.126 326.278,84.329 326.534 C 84.533 326.791,84.823 327.855,84.974 328.900 C 85.125 329.945,85.410 330.800,85.606 330.800 C 85.803 330.800,86.082 331.430,86.226 332.200 C 86.371 332.970,86.629 333.600,86.801 333.600 C 86.973 333.600,87.226 334.050,87.364 334.599 C 88.145 337.712,97.672 348.741,100.700 350.038 C 101.415 350.345,102.000 350.716,102.000 350.863 C 102.000 351.094,103.140 351.871,107.000 354.271 C 107.440 354.544,108.250 354.997,108.800 355.276 C 109.350 355.555,109.890 355.896,110.000 356.034 C 110.110 356.172,110.875 356.409,111.700 356.560 C 112.525 356.712,113.200 357.008,113.200 357.218 C 113.200 357.428,113.471 357.600,113.801 357.600 C 114.132 357.600,115.075 357.960,115.896 358.400 C 116.716 358.840,117.775 359.200,118.248 359.200 C 118.721 359.200,119.607 359.459,120.217 359.775 C 120.826 360.091,122.467 360.472,123.862 360.621 C 125.258 360.771,126.400 361.037,126.400 361.212 C 126.400 361.388,127.795 361.649,129.500 361.791 C 131.205 361.934,133.000 362.247,133.488 362.487 C 135.164 363.309,154.773 363.141,155.246 362.300 C 155.463 361.915,155.824 361.600,156.049 361.600 C 156.677 361.600,160.400 357.939,160.400 357.321 C 160.400 357.021,160.659 356.676,160.976 356.554 C 161.292 356.433,161.676 355.766,161.828 355.072 C 161.980 354.379,162.372 353.403,162.699 352.904 C 163.443 351.769,163.283 338.946,162.519 338.473 C 162.268 338.319,161.931 337.654,161.770 336.996 C 161.609 336.338,161.370 335.710,161.238 335.600 C 160.784 335.218,159.200 332.831,159.193 332.516 C 159.185 332.130,157.397 330.400,157.007 330.400 C 156.852 330.400,156.269 330.040,155.709 329.600 C 155.150 329.160,154.266 328.800,153.746 328.800 C 153.226 328.800,152.800 328.648,152.800 328.463 C 152.800 328.277,148.991 328.016,144.336 327.882 C 139.680 327.749,135.765 327.477,135.636 327.280 C 135.506 327.082,134.353 326.815,133.072 326.686 C 131.792 326.557,130.532 326.276,130.272 326.062 C 130.013 325.847,129.169 325.554,128.399 325.410 C 125.687 324.903,120.408 319.705,120.398 317.532 C 120.396 317.239,120.082 316.460,119.698 315.800 C 119.051 314.684,118.987 311.360,118.789 268.400 C 118.632 234.220,118.454 221.888,118.104 221.000 C 117.844 220.340,117.352 218.810,117.010 217.600 C 116.477 215.708,115.571 213.513,114.370 211.200 C 113.514 209.552,110.681 205.074,110.082 204.422 C 109.707 204.014,108.862 203.033,108.204 202.240 C 107.546 201.448,106.841 200.800,106.637 200.800 C 104.712 200.800,104.988 199.356,107.370 196.953 C 109.971 194.330,111.200 192.924,111.200 192.571 C 111.200 192.451,111.823 191.536,112.585 190.538 C 113.347 189.540,114.530 187.526,115.213 186.062 C 115.896 184.598,116.623 183.087,116.827 182.705 C 117.032 182.323,117.208 181.693,117.218 181.305 C 117.227 180.917,117.533 179.880,117.897 179.000 C 118.496 177.553,118.580 172.909,118.780 130.400 C 118.945 95.181,119.119 83.199,119.475 82.600 C 119.736 82.160,120.366 80.900,120.875 79.800 C 122.122 77.104,124.041 75.081,126.424 73.949 C 127.511 73.433,128.400 72.897,128.400 72.757 C 128.400 72.617,129.160 72.381,130.088 72.232 C 131.016 72.084,131.871 71.810,131.988 71.623 C 132.258 71.190,138.632 70.403,141.876 70.401 C 143.238 70.401,144.464 70.220,144.600 70.000 C 144.740 69.773,146.728 69.600,149.195 69.600 C 152.340 69.600,153.694 69.449,154.090 69.053 C 154.391 68.752,155.034 68.380,155.519 68.226 C 156.003 68.072,156.400 67.778,156.400 67.573 C 156.400 67.368,156.625 67.197,156.900 67.193 C 157.400 67.186,159.200 65.504,159.200 65.044 C 159.200 64.910,159.560 64.440,160.000 64.000 C 160.440 63.560,160.800 62.930,160.800 62.600 C 160.800 62.270,160.966 62.000,161.168 62.000 C 161.371 62.000,161.663 61.415,161.818 60.700 C 161.974 59.985,162.303 59.272,162.550 59.115 C 162.855 58.921,163.000 56.620,163.000 52.000 C 163.000 47.380,162.855 45.079,162.550 44.885 C 162.303 44.728,161.974 44.015,161.818 43.300 C 161.663 42.585,161.390 42.000,161.212 42.000 C 161.033 42.000,160.783 41.589,160.657 41.086 C 160.420 40.140,156.790 36.000,156.198 36.000 C 156.014 36.000,155.555 35.721,155.179 35.381 C 154.353 34.634,151.483 34.473,142.609 34.675 " stroke="none" fill="#ec1c24" fill-rule="evenodd"></path><path id="path2" d="M251.722 35.099 C 254.099 35.170,257.879 35.169,260.122 35.098 C 262.365 35.027,260.420 34.969,255.800 34.969 C 251.180 34.970,249.345 35.028,251.722 35.099 " stroke="none" fill="#6834d0" fill-rule="evenodd"></path><path id="path3" d="M251.722 35.099 C 254.099 35.170,257.879 35.169,260.122 35.098 C 262.365 35.027,260.420 34.969,255.800 34.969 C 251.180 34.970,249.345 35.028,251.722 35.099 " stroke="none" fill="#6834d0" fill-rule="evenodd"></path><path id="path4" d="M251.722 35.099 C 254.099 35.170,257.879 35.169,260.122 35.098 C 262.365 35.027,260.420 34.969,255.800 34.969 C 251.180 34.970,249.345 35.028,251.722 35.099 " stroke="none" fill="#6834d0" fill-rule="evenodd"></path></g></svg>